<mxfile host="www.draw.io" modified="2019-10-18T15:18:16.312Z" agent="Mozilla/5.0 (Windows NT 10.0; Win64; x64; rv:69.0) Gecko/20100101 Firefox/69.0" etag="_NZXG7oIZmI29301R8F2" version="12.1.3" type="github" pages="1">
  <diagram name="Page-1" id="42789a77-a242-8287-6e28-9cd8cfd52e62">
    <mxGraphModel dx="1190" dy="601" grid="1" gridSize="10" guides="1" tooltips="1" connect="1" arrows="1" fold="1" page="1" pageScale="1" pageWidth="1100" pageHeight="850" background="#ffffff" math="0" shadow="0">
      <root>
        <mxCell id="0"/>
        <mxCell id="1" parent="0"/>
        <mxCell id="ejWjwremNbsHdBOJyEj_-86" style="edgeStyle=orthogonalEdgeStyle;rounded=0;orthogonalLoop=1;jettySize=auto;html=1;" parent="1" source="1ea317790d2ca983-1" target="ejWjwremNbsHdBOJyEj_-76" edge="1">
          <mxGeometry relative="1" as="geometry"/>
        </mxCell>
        <mxCell id="ejWjwremNbsHdBOJyEj_-87" style="edgeStyle=orthogonalEdgeStyle;rounded=0;orthogonalLoop=1;jettySize=auto;html=1;entryX=0;entryY=0.5;entryDx=0;entryDy=0;" parent="1" source="1ea317790d2ca983-1" target="1ea317790d2ca983-6" edge="1">
          <mxGeometry relative="1" as="geometry"/>
        </mxCell>
        <mxCell id="ejWjwremNbsHdBOJyEj_-88" value="Includes" style="text;html=1;resizable=0;points=[];align=center;verticalAlign=middle;labelBackgroundColor=#ffffff;" parent="ejWjwremNbsHdBOJyEj_-87" vertex="1" connectable="0">
          <mxGeometry x="0.1415" relative="1" as="geometry">
            <mxPoint as="offset"/>
          </mxGeometry>
        </mxCell>
        <mxCell id="1ea317790d2ca983-1" value="PLAN A NEW TRAVEL" style="ellipse;whiteSpace=wrap;html=1;rounded=0;shadow=1;comic=0;labelBackgroundColor=none;strokeColor=#000000;strokeWidth=1;fillColor=#FFFFFF;fontFamily=Verdana;fontSize=12;fontColor=#000000;align=center;" parent="1" vertex="1">
          <mxGeometry x="265" y="164" width="105" height="60" as="geometry"/>
        </mxCell>
        <mxCell id="ejWjwremNbsHdBOJyEj_-36" style="edgeStyle=orthogonalEdgeStyle;rounded=0;orthogonalLoop=1;jettySize=auto;html=1;entryX=0.5;entryY=1;entryDx=0;entryDy=0;" parent="1" source="1ea317790d2ca983-3" target="1ea317790d2ca983-11" edge="1">
          <mxGeometry relative="1" as="geometry"/>
        </mxCell>
        <mxCell id="ejWjwremNbsHdBOJyEj_-37" value="Extends" style="text;html=1;resizable=0;points=[];align=center;verticalAlign=middle;labelBackgroundColor=#ffffff;" parent="ejWjwremNbsHdBOJyEj_-36" vertex="1" connectable="0">
          <mxGeometry x="0.4249" y="-1" relative="1" as="geometry">
            <mxPoint as="offset"/>
          </mxGeometry>
        </mxCell>
        <mxCell id="ejWjwremNbsHdBOJyEj_-84" style="edgeStyle=orthogonalEdgeStyle;rounded=0;orthogonalLoop=1;jettySize=auto;html=1;entryX=0.5;entryY=0;entryDx=0;entryDy=0;" parent="1" source="1ea317790d2ca983-3" target="1ea317790d2ca983-1" edge="1">
          <mxGeometry relative="1" as="geometry"/>
        </mxCell>
        <mxCell id="ejWjwremNbsHdBOJyEj_-85" value="Extends" style="text;html=1;resizable=0;points=[];align=center;verticalAlign=middle;labelBackgroundColor=#ffffff;" parent="ejWjwremNbsHdBOJyEj_-84" vertex="1" connectable="0">
          <mxGeometry x="0.3548" y="1" relative="1" as="geometry">
            <mxPoint x="-1" y="1" as="offset"/>
          </mxGeometry>
        </mxCell>
        <mxCell id="1ea317790d2ca983-3" value="SAVE THE TRAVEL" style="ellipse;whiteSpace=wrap;html=1;rounded=0;shadow=1;comic=0;labelBackgroundColor=none;strokeColor=#000000;strokeWidth=1;fillColor=#FFFFFF;fontFamily=Verdana;fontSize=12;fontColor=#000000;align=center;" parent="1" vertex="1">
          <mxGeometry x="420" y="90" width="108" height="50" as="geometry"/>
        </mxCell>
        <mxCell id="ejWjwremNbsHdBOJyEj_-14" style="edgeStyle=orthogonalEdgeStyle;rounded=0;orthogonalLoop=1;jettySize=auto;html=1;entryX=0.5;entryY=0;entryDx=0;entryDy=0;" parent="1" source="1ea317790d2ca983-4" target="1ea317790d2ca983-6" edge="1">
          <mxGeometry relative="1" as="geometry"/>
        </mxCell>
        <mxCell id="ejWjwremNbsHdBOJyEj_-15" value="Extends" style="text;html=1;resizable=0;points=[];align=center;verticalAlign=middle;labelBackgroundColor=#ffffff;" parent="ejWjwremNbsHdBOJyEj_-14" vertex="1" connectable="0">
          <mxGeometry x="0.2373" relative="1" as="geometry">
            <mxPoint as="offset"/>
          </mxGeometry>
        </mxCell>
        <mxCell id="ejWjwremNbsHdBOJyEj_-81" style="edgeStyle=orthogonalEdgeStyle;rounded=0;orthogonalLoop=1;jettySize=auto;html=1;entryX=0;entryY=0.3333333333333333;entryDx=0;entryDy=0;entryPerimeter=0;" parent="1" source="1ea317790d2ca983-4" target="ejWjwremNbsHdBOJyEj_-75" edge="1">
          <mxGeometry relative="1" as="geometry"/>
        </mxCell>
        <mxCell id="1ea317790d2ca983-4" value="FB LOGIN" style="ellipse;whiteSpace=wrap;html=1;rounded=0;shadow=1;comic=0;labelBackgroundColor=none;strokeColor=#000000;strokeWidth=1;fillColor=#FFFFFF;fontFamily=Verdana;fontSize=12;fontColor=#000000;align=center;" parent="1" vertex="1">
          <mxGeometry x="790" y="15" width="110" height="50" as="geometry"/>
        </mxCell>
        <mxCell id="ejWjwremNbsHdBOJyEj_-12" style="edgeStyle=orthogonalEdgeStyle;rounded=0;orthogonalLoop=1;jettySize=auto;html=1;entryX=0.5;entryY=1;entryDx=0;entryDy=0;" parent="1" source="1ea317790d2ca983-5" target="1ea317790d2ca983-6" edge="1">
          <mxGeometry relative="1" as="geometry">
            <mxPoint x="760" y="290" as="targetPoint"/>
          </mxGeometry>
        </mxCell>
        <mxCell id="ejWjwremNbsHdBOJyEj_-13" value="Extends" style="text;html=1;resizable=0;points=[];align=center;verticalAlign=middle;labelBackgroundColor=#ffffff;" parent="ejWjwremNbsHdBOJyEj_-12" vertex="1" connectable="0">
          <mxGeometry x="0.0156" y="-4" relative="1" as="geometry">
            <mxPoint as="offset"/>
          </mxGeometry>
        </mxCell>
        <mxCell id="1ea317790d2ca983-5" value="NEW USER" style="ellipse;whiteSpace=wrap;html=1;rounded=0;shadow=1;comic=0;labelBackgroundColor=none;strokeColor=#000000;strokeWidth=1;fillColor=#FFFFFF;fontFamily=Verdana;fontSize=12;fontColor=#000000;align=center;" parent="1" vertex="1">
          <mxGeometry x="740" y="410" width="110" height="50" as="geometry"/>
        </mxCell>
        <mxCell id="1ea317790d2ca983-6" value="LOG IN" style="ellipse;whiteSpace=wrap;html=1;rounded=0;shadow=1;comic=0;labelBackgroundColor=none;strokeColor=#000000;strokeWidth=1;fillColor=#FFFFFF;fontFamily=Verdana;fontSize=12;fontColor=#000000;align=center;" parent="1" vertex="1">
          <mxGeometry x="740" y="115" width="110" height="50" as="geometry"/>
        </mxCell>
        <mxCell id="ejWjwremNbsHdBOJyEj_-24" style="edgeStyle=orthogonalEdgeStyle;rounded=0;orthogonalLoop=1;jettySize=auto;html=1;entryX=0;entryY=1;entryDx=0;entryDy=0;" parent="1" source="1ea317790d2ca983-7" target="1ea317790d2ca983-6" edge="1">
          <mxGeometry relative="1" as="geometry"/>
        </mxCell>
        <mxCell id="ejWjwremNbsHdBOJyEj_-38" value="Includes" style="text;html=1;resizable=0;points=[];align=center;verticalAlign=middle;labelBackgroundColor=#ffffff;" parent="ejWjwremNbsHdBOJyEj_-24" vertex="1" connectable="0">
          <mxGeometry x="0.5907" y="-2" relative="1" as="geometry">
            <mxPoint as="offset"/>
          </mxGeometry>
        </mxCell>
        <mxCell id="ejWjwremNbsHdBOJyEj_-25" style="edgeStyle=orthogonalEdgeStyle;rounded=0;orthogonalLoop=1;jettySize=auto;html=1;entryX=0.5;entryY=0;entryDx=0;entryDy=0;" parent="1" source="1ea317790d2ca983-7" target="1ea317790d2ca983-11" edge="1">
          <mxGeometry relative="1" as="geometry"/>
        </mxCell>
        <mxCell id="ejWjwremNbsHdBOJyEj_-26" value="Extends" style="text;html=1;resizable=0;points=[];align=center;verticalAlign=middle;labelBackgroundColor=#ffffff;" parent="ejWjwremNbsHdBOJyEj_-25" vertex="1" connectable="0">
          <mxGeometry x="0.3469" y="4" relative="1" as="geometry">
            <mxPoint as="offset"/>
          </mxGeometry>
        </mxCell>
        <mxCell id="1ea317790d2ca983-7" value="BOOK AN OLD TRAVEL" style="ellipse;whiteSpace=wrap;html=1;rounded=0;shadow=1;comic=0;labelBackgroundColor=none;strokeColor=#000000;strokeWidth=1;fillColor=#FFFFFF;fontFamily=Verdana;fontSize=12;fontColor=#000000;align=center;" parent="1" vertex="1">
          <mxGeometry x="260" y="287.5" width="110" height="60" as="geometry"/>
        </mxCell>
        <mxCell id="ejWjwremNbsHdBOJyEj_-61" style="edgeStyle=orthogonalEdgeStyle;rounded=0;orthogonalLoop=1;jettySize=auto;html=1;entryX=1;entryY=0.5;entryDx=0;entryDy=0;" parent="1" source="1ea317790d2ca983-8" target="1ea317790d2ca983-6" edge="1">
          <mxGeometry relative="1" as="geometry"/>
        </mxCell>
        <mxCell id="1ea317790d2ca983-8" value="POST MEDIA" style="ellipse;whiteSpace=wrap;html=1;rounded=0;shadow=1;comic=0;labelBackgroundColor=none;strokeColor=#000000;strokeWidth=1;fillColor=#FFFFFF;fontFamily=Verdana;fontSize=12;fontColor=#000000;align=center;" parent="1" vertex="1">
          <mxGeometry x="270" y="470" width="110" height="50" as="geometry"/>
        </mxCell>
        <mxCell id="ejWjwremNbsHdBOJyEj_-19" style="edgeStyle=orthogonalEdgeStyle;rounded=0;orthogonalLoop=1;jettySize=auto;html=1;exitX=1;exitY=0;exitDx=0;exitDy=0;entryX=0.28;entryY=0.08;entryDx=0;entryDy=0;entryPerimeter=0;" parent="1" source="1ea317790d2ca983-9" target="1ea317790d2ca983-6" edge="1">
          <mxGeometry relative="1" as="geometry"/>
        </mxCell>
        <mxCell id="ejWjwremNbsHdBOJyEj_-20" value="Includes" style="text;html=1;resizable=0;points=[];align=center;verticalAlign=middle;labelBackgroundColor=#ffffff;" parent="ejWjwremNbsHdBOJyEj_-19" vertex="1" connectable="0">
          <mxGeometry x="0.0686" y="-1" relative="1" as="geometry">
            <mxPoint as="offset"/>
          </mxGeometry>
        </mxCell>
        <mxCell id="1ea317790d2ca983-9" value="PLAN SAVED TRAVEL" style="ellipse;whiteSpace=wrap;html=1;rounded=0;shadow=1;comic=0;labelBackgroundColor=none;strokeColor=#000000;strokeWidth=1;fillColor=#FFFFFF;fontFamily=Verdana;fontSize=12;fontColor=#000000;align=center;" parent="1" vertex="1">
          <mxGeometry x="255" y="40" width="105" height="60" as="geometry"/>
        </mxCell>
        <mxCell id="1ea317790d2ca983-11" value="VIEW&amp;nbsp; OTHER&#39;S TRAVEL" style="ellipse;whiteSpace=wrap;html=1;rounded=0;shadow=1;comic=0;labelBackgroundColor=none;strokeColor=#000000;strokeWidth=1;fillColor=#FFFFFF;fontFamily=Verdana;fontSize=12;fontColor=#000000;align=center;" parent="1" vertex="1">
          <mxGeometry x="260" y="380" width="110" height="60" as="geometry"/>
        </mxCell>
        <mxCell id="ejWjwremNbsHdBOJyEj_-40" style="edgeStyle=orthogonalEdgeStyle;rounded=0;orthogonalLoop=1;jettySize=auto;html=1;entryX=0;entryY=0.5;entryDx=0;entryDy=0;" parent="1" source="ejWjwremNbsHdBOJyEj_-1" target="1ea317790d2ca983-1" edge="1">
          <mxGeometry relative="1" as="geometry"/>
        </mxCell>
        <mxCell id="ejWjwremNbsHdBOJyEj_-41" style="edgeStyle=orthogonalEdgeStyle;rounded=0;orthogonalLoop=1;jettySize=auto;html=1;entryX=0;entryY=0.5;entryDx=0;entryDy=0;" parent="1" source="ejWjwremNbsHdBOJyEj_-1" target="1ea317790d2ca983-9" edge="1">
          <mxGeometry relative="1" as="geometry"/>
        </mxCell>
        <mxCell id="ejWjwremNbsHdBOJyEj_-42" style="edgeStyle=orthogonalEdgeStyle;rounded=0;orthogonalLoop=1;jettySize=auto;html=1;entryX=0;entryY=0.5;entryDx=0;entryDy=0;" parent="1" source="ejWjwremNbsHdBOJyEj_-1" target="1ea317790d2ca983-11" edge="1">
          <mxGeometry relative="1" as="geometry"/>
        </mxCell>
        <mxCell id="ejWjwremNbsHdBOJyEj_-1" value="New User" style="shape=umlActor;verticalLabelPosition=bottom;labelBackgroundColor=#ffffff;verticalAlign=top;html=1;outlineConnect=0;rotation=0;" parent="1" vertex="1">
          <mxGeometry x="20" y="280" width="30" height="75" as="geometry"/>
        </mxCell>
        <mxCell id="ejWjwremNbsHdBOJyEj_-56" style="edgeStyle=orthogonalEdgeStyle;rounded=0;orthogonalLoop=1;jettySize=auto;html=1;entryX=0;entryY=0.5;entryDx=0;entryDy=0;" parent="1" source="ejWjwremNbsHdBOJyEj_-39" target="1ea317790d2ca983-8" edge="1">
          <mxGeometry relative="1" as="geometry"/>
        </mxCell>
        <mxCell id="ejWjwremNbsHdBOJyEj_-68" style="edgeStyle=orthogonalEdgeStyle;rounded=0;orthogonalLoop=1;jettySize=auto;html=1;entryX=0;entryY=0.5;entryDx=0;entryDy=0;" parent="1" source="ejWjwremNbsHdBOJyEj_-39" target="ejWjwremNbsHdBOJyEj_-67" edge="1">
          <mxGeometry relative="1" as="geometry"/>
        </mxCell>
        <mxCell id="ejWjwremNbsHdBOJyEj_-39" value="Marco POLO" style="shape=umlActor;verticalLabelPosition=bottom;labelBackgroundColor=#ffffff;verticalAlign=top;html=1;outlineConnect=0;" parent="1" vertex="1">
          <mxGeometry x="20" y="495" width="30" height="80" as="geometry"/>
        </mxCell>
        <mxCell id="ejWjwremNbsHdBOJyEj_-65" value="Extends" style="edgeStyle=orthogonalEdgeStyle;rounded=0;orthogonalLoop=1;jettySize=auto;html=1;entryX=0.5;entryY=1;entryDx=0;entryDy=0;" parent="1" source="ejWjwremNbsHdBOJyEj_-57" target="1ea317790d2ca983-8" edge="1">
          <mxGeometry relative="1" as="geometry"/>
        </mxCell>
        <mxCell id="ejWjwremNbsHdBOJyEj_-57" value="SHARE" style="ellipse;whiteSpace=wrap;html=1;" parent="1" vertex="1">
          <mxGeometry x="265" y="600" width="120" height="55" as="geometry"/>
        </mxCell>
        <mxCell id="ejWjwremNbsHdBOJyEj_-105" style="edgeStyle=orthogonalEdgeStyle;rounded=0;orthogonalLoop=1;jettySize=auto;html=1;entryX=0;entryY=0.3333333333333333;entryDx=0;entryDy=0;entryPerimeter=0;" parent="1" source="ejWjwremNbsHdBOJyEj_-67" target="ejWjwremNbsHdBOJyEj_-102" edge="1">
          <mxGeometry relative="1" as="geometry"/>
        </mxCell>
        <mxCell id="ejWjwremNbsHdBOJyEj_-67" value="VIEW PLACES/EVENTS" style="ellipse;whiteSpace=wrap;html=1;" parent="1" vertex="1">
          <mxGeometry x="260" y="735" width="120" height="50" as="geometry"/>
        </mxCell>
        <mxCell id="ejWjwremNbsHdBOJyEj_-72" style="edgeStyle=orthogonalEdgeStyle;rounded=0;orthogonalLoop=1;jettySize=auto;html=1;entryX=1;entryY=0.22;entryDx=0;entryDy=0;entryPerimeter=0;" parent="1" source="ejWjwremNbsHdBOJyEj_-69" target="1ea317790d2ca983-6" edge="1">
          <mxGeometry relative="1" as="geometry"/>
        </mxCell>
        <mxCell id="ejWjwremNbsHdBOJyEj_-100" value="Includes" style="text;html=1;resizable=0;points=[];align=center;verticalAlign=middle;labelBackgroundColor=#ffffff;" parent="ejWjwremNbsHdBOJyEj_-72" vertex="1" connectable="0">
          <mxGeometry x="0.2234" y="3" relative="1" as="geometry">
            <mxPoint as="offset"/>
          </mxGeometry>
        </mxCell>
        <mxCell id="ejWjwremNbsHdBOJyEj_-101" style="edgeStyle=orthogonalEdgeStyle;rounded=0;orthogonalLoop=1;jettySize=auto;html=1;" parent="1" source="ejWjwremNbsHdBOJyEj_-69" target="ejWjwremNbsHdBOJyEj_-91" edge="1">
          <mxGeometry relative="1" as="geometry"/>
        </mxCell>
        <mxCell id="ejWjwremNbsHdBOJyEj_-108" style="edgeStyle=orthogonalEdgeStyle;rounded=0;orthogonalLoop=1;jettySize=auto;html=1;entryX=0.5;entryY=1;entryDx=0;entryDy=0;" parent="1" source="ejWjwremNbsHdBOJyEj_-69" target="ejWjwremNbsHdBOJyEj_-67" edge="1">
          <mxGeometry relative="1" as="geometry"/>
        </mxCell>
        <mxCell id="ejWjwremNbsHdBOJyEj_-109" value="Extends" style="text;html=1;resizable=0;points=[];align=center;verticalAlign=middle;labelBackgroundColor=#ffffff;" parent="ejWjwremNbsHdBOJyEj_-108" vertex="1" connectable="0">
          <mxGeometry x="-0.28" relative="1" as="geometry">
            <mxPoint as="offset"/>
          </mxGeometry>
        </mxCell>
        <mxCell id="ejWjwremNbsHdBOJyEj_-69" value="BOOK TICKETS" style="ellipse;whiteSpace=wrap;html=1;" parent="1" vertex="1">
          <mxGeometry x="540" y="520" width="120" height="50" as="geometry"/>
        </mxCell>
        <mxCell id="ejWjwremNbsHdBOJyEj_-75" value="Facebook" style="shape=umlActor;verticalLabelPosition=bottom;labelBackgroundColor=#ffffff;verticalAlign=top;html=1;outlineConnect=0;" parent="1" vertex="1">
          <mxGeometry x="1010" y="60" width="30" height="60" as="geometry"/>
        </mxCell>
        <mxCell id="ejWjwremNbsHdBOJyEj_-76" value="Trivago" style="shape=umlActor;verticalLabelPosition=bottom;labelBackgroundColor=#ffffff;verticalAlign=top;html=1;outlineConnect=0;" parent="1" vertex="1">
          <mxGeometry x="1010" y="305" width="30" height="60" as="geometry"/>
        </mxCell>
        <mxCell id="ejWjwremNbsHdBOJyEj_-90" value="" style="endArrow=classic;html=1;" parent="1" edge="1">
          <mxGeometry width="50" height="50" relative="1" as="geometry">
            <mxPoint x="38" y="490" as="sourcePoint"/>
            <mxPoint x="36" y="370" as="targetPoint"/>
          </mxGeometry>
        </mxCell>
        <mxCell id="ejWjwremNbsHdBOJyEj_-91" value="TicketONE" style="shape=umlActor;verticalLabelPosition=bottom;labelBackgroundColor=#ffffff;verticalAlign=top;html=1;outlineConnect=0;" parent="1" vertex="1">
          <mxGeometry x="1010" y="560" width="30" height="60" as="geometry"/>
        </mxCell>
        <mxCell id="ejWjwremNbsHdBOJyEj_-102" value="Google API" style="shape=umlActor;verticalLabelPosition=bottom;labelBackgroundColor=#ffffff;verticalAlign=top;html=1;outlineConnect=0;" parent="1" vertex="1">
          <mxGeometry x="1010" y="700" width="30" height="60" as="geometry"/>
        </mxCell>
        <mxCell id="VNkdx1ckIU9RjgBlfrkv-4" value="" style="line;strokeWidth=2;direction=south;html=1;shadow=0;" vertex="1" parent="1">
          <mxGeometry x="90" y="10" width="10" height="820" as="geometry"/>
        </mxCell>
        <mxCell id="VNkdx1ckIU9RjgBlfrkv-5" value="" style="line;strokeWidth=2;direction=south;html=1;shadow=0;rotation=-90;" vertex="1" parent="1">
          <mxGeometry x="524" y="394" width="10" height="875" as="geometry"/>
        </mxCell>
        <mxCell id="VNkdx1ckIU9RjgBlfrkv-7" value="" style="line;strokeWidth=2;direction=south;html=1;shadow=0;" vertex="1" parent="1">
          <mxGeometry x="960" y="10" width="10" height="822" as="geometry"/>
        </mxCell>
        <mxCell id="VNkdx1ckIU9RjgBlfrkv-10" value="" style="line;strokeWidth=2;direction=south;html=1;shadow=0;rotation=90;" vertex="1" parent="1">
          <mxGeometry x="525" y="-425" width="10" height="870" as="geometry"/>
        </mxCell>
      </root>
    </mxGraphModel>
  </diagram>
</mxfile>
